<svg width="14" height="14" viewBox="0 0 14 14" fill="none" xmlns="http://www.w3.org/2000/svg">
<g clip-path="url(#clip0)">
<path d="M13.9287 0.573351C13.8664 0.518691 13.7777 0.506009 13.7026 0.540873L0.121095 6.85121C0.0479766 6.8852 0.000891423 6.95815 1.24991e-05 7.03876C-0.000866424 7.11937 0.0446702 7.19332 0.117077 7.22886L3.96061 9.11511C4.03109 9.14972 4.11513 9.1419 4.17808 9.09485L7.91505 6.3018L4.98137 9.31944C4.93952 9.36251 4.91818 9.42148 4.92278 9.48133L5.21488 13.2854C5.22136 13.3696 5.27787 13.4417 5.35818 13.4681C5.37965 13.4752 5.40171 13.4786 5.42351 13.4786C5.48332 13.4786 5.5415 13.4529 5.58197 13.4061L7.622 11.0421L10.1439 12.2471C10.1986 12.2732 10.262 12.2743 10.3176 12.2501C10.3732 12.2259 10.4156 12.1787 10.4338 12.1209L13.9904 0.793375C14.0152 0.714272 13.991 0.628012 13.9287 0.573351Z" fill="#19BCF3"/>
</g>
<defs>
<clipPath id="clip0">
<rect width="14" height="14" fill="white"/>
</clipPath>
</defs>
</svg>
