<svg width="12" height="10" viewBox="0 0 12 10" fill="none" xmlns="http://www.w3.org/2000/svg">
<path d="M11.8048 4.77348L9.94527 0.460946C9.89319 0.330639 9.79824 0.22132 9.66011 0.132825C9.52217 0.0441928 9.38546 0 9.25006 0H2.75005C2.61463 0 2.47792 0.0441928 2.33995 0.132825C2.20198 0.22132 2.10681 0.330639 2.05476 0.460946L0.195297 4.77348C0.0650715 5.0912 0 5.41147 0 5.73436V9.50014C0 9.63556 0.0494467 9.75271 0.148422 9.85171C0.247452 9.95058 0.364652 10.0001 0.500076 10.0001H11.5001C11.6355 10.0001 11.7527 9.95058 11.8517 9.85171C11.9506 9.75273 12 9.63559 12 9.50014V5.73436C12 5.41147 11.9351 5.0912 11.8048 4.77348ZM7.99222 5.50005L7.2503 7.00011H4.75014L4.00794 5.50005H1.53914C1.54442 5.48965 1.55085 5.46885 1.55871 5.4376C1.56656 5.40641 1.57307 5.38553 1.57827 5.37513L3.2345 1.5002H8.7658L10.4219 5.37513C10.4272 5.39086 10.4337 5.41166 10.4413 5.4376C10.4492 5.46352 10.4557 5.48431 10.461 5.50005H7.99222Z" fill="#364C53"/>
</svg>
