<svg xmlns="http://www.w3.org/2000/svg" width="18" height="14" viewBox="0 0 18 14">
    <defs>
        <mask id="ukmhb" width="2" height="2" x="-1" y="-1">
            <path fill="#fff" d="M1 1h16v12H1z"/>
            <path d="M17 2.931v8.14C17 12.136 16.122 13 15.043 13H2.956C1.877 13 1 12.135 1 11.072V2.928C1 1.865 1.877 1 2.956 1h12.09c1.08 0 1.957.868 1.954 1.931zm-.894 8.14v-8.14c0-.577-.477-1.047-1.063-1.047H2.956c-.586 0-1.062.47-1.062 1.047v8.14c0 .578.476 1.048 1.062 1.048h12.09c.587 0 1.063-.47 1.063-1.047zm-1.086-.495a.438.438 0 0 1 .017.623.45.45 0 0 1-.633.016L10.425 7.49l-1.116.986a.447.447 0 0 1-.596.003l-1.085-.956-4.003 3.69a.451.451 0 0 1-.632-.023.438.438 0 0 1 .02-.623l3.943-3.638-3.96-3.488a.435.435 0 0 1-.036-.623.451.451 0 0 1 .632-.036L7.876 6.56c.026.02.05.039.073.062 0 .003.003.006.006.01l1.053.926 5.396-4.773a.454.454 0 0 1 .633.032.438.438 0 0 1-.034.623L11.09 6.9z"/>
        </mask>
        <filter id="ukmha" width="38" height="34" x="-10" y="-10" filterUnits="userSpaceOnUse">
            <feOffset in="SourceGraphic" result="FeOffset1041Out"/>
            <feGaussianBlur in="FeOffset1041Out" result="FeGaussianBlur1042Out" stdDeviation="0.4 0.4"/>
        </filter>
    </defs>
    <g>
        <g>
            <g filter="url(#ukmha)">
                <path fill="none"
                      d="M17 2.931v8.14C17 12.136 16.122 13 15.043 13H2.956C1.877 13 1 12.135 1 11.072V2.928C1 1.865 1.877 1 2.956 1h12.09c1.08 0 1.957.868 1.954 1.931zm-.894 8.14v-8.14c0-.577-.477-1.047-1.063-1.047H2.956c-.586 0-1.062.47-1.062 1.047v8.14c0 .578.476 1.048 1.062 1.048h12.09c.587 0 1.063-.47 1.063-1.047zm-1.086-.495a.438.438 0 0 1 .017.623.45.45 0 0 1-.633.016L10.425 7.49l-1.116.986a.447.447 0 0 1-.596.003l-1.085-.956-4.003 3.69a.451.451 0 0 1-.632-.023.438.438 0 0 1 .02-.623l3.943-3.638-3.96-3.488a.435.435 0 0 1-.036-.623.451.451 0 0 1 .632-.036L7.876 6.56c.026.02.05.039.073.062 0 .003.003.006.006.01l1.053.926 5.396-4.773a.454.454 0 0 1 .633.032.438.438 0 0 1-.034.623L11.09 6.9z"
                      mask="url(&quot;#ukmhb&quot;)"/>
                <path fill="#29bbf5" fill-opacity=".34"
                      d="M17 2.931v8.14C17 12.136 16.122 13 15.043 13H2.956C1.877 13 1 12.135 1 11.072V2.928C1 1.865 1.877 1 2.956 1h12.09c1.08 0 1.957.868 1.954 1.931zm-.894 8.14v-8.14c0-.577-.477-1.047-1.063-1.047H2.956c-.586 0-1.062.47-1.062 1.047v8.14c0 .578.476 1.048 1.062 1.048h12.09c.587 0 1.063-.47 1.063-1.047zm-1.086-.495a.438.438 0 0 1 .017.623.45.45 0 0 1-.633.016L10.425 7.49l-1.116.986a.447.447 0 0 1-.596.003l-1.085-.956-4.003 3.69a.451.451 0 0 1-.632-.023.438.438 0 0 1 .02-.623l3.943-3.638-3.96-3.488a.435.435 0 0 1-.036-.623.451.451 0 0 1 .632-.036L7.876 6.56c.026.02.05.039.073.062 0 .003.003.006.006.01l1.053.926 5.396-4.773a.454.454 0 0 1 .633.032.438.438 0 0 1-.034.623L11.09 6.9z"/>
            </g>
            <g filter="url(#ukmha)">
                <path fill="none"
                      d="M17 2.931v8.14C17 12.136 16.122 13 15.043 13H2.956C1.877 13 1 12.135 1 11.072V2.928C1 1.865 1.877 1 2.956 1h12.09c1.08 0 1.957.868 1.954 1.931zm-.894 8.14v-8.14c0-.577-.477-1.047-1.063-1.047H2.956c-.586 0-1.062.47-1.062 1.047v8.14c0 .578.476 1.048 1.062 1.048h12.09c.587 0 1.063-.47 1.063-1.047zm-1.086-.495a.438.438 0 0 1 .017.623.45.45 0 0 1-.633.016L10.425 7.49l-1.116.986a.447.447 0 0 1-.596.003l-1.085-.956-4.003 3.69a.451.451 0 0 1-.632-.023.438.438 0 0 1 .02-.623l3.943-3.638-3.96-3.488a.435.435 0 0 1-.036-.623.451.451 0 0 1 .632-.036L7.876 6.56c.026.02.05.039.073.062 0 .003.003.006.006.01l1.053.926 5.396-4.773a.454.454 0 0 1 .633.032.438.438 0 0 1-.034.623L11.09 6.9z"
                      mask="url(&quot;#ukmhb&quot;)"/>
                <path fill="#29bbf5" fill-opacity=".34"
                      d="M17 2.931v8.14C17 12.136 16.122 13 15.043 13H2.956C1.877 13 1 12.135 1 11.072V2.928C1 1.865 1.877 1 2.956 1h12.09c1.08 0 1.957.868 1.954 1.931zm-.894 8.14v-8.14c0-.577-.477-1.047-1.063-1.047H2.956c-.586 0-1.062.47-1.062 1.047v8.14c0 .578.476 1.048 1.062 1.048h12.09c.587 0 1.063-.47 1.063-1.047zm-1.086-.495a.438.438 0 0 1 .017.623.45.45 0 0 1-.633.016L10.425 7.49l-1.116.986a.447.447 0 0 1-.596.003l-1.085-.956-4.003 3.69a.451.451 0 0 1-.632-.023.438.438 0 0 1 .02-.623l3.943-3.638-3.96-3.488a.435.435 0 0 1-.036-.623.451.451 0 0 1 .632-.036L7.876 6.56c.026.02.05.039.073.062 0 .003.003.006.006.01l1.053.926 5.396-4.773a.454.454 0 0 1 .633.032.438.438 0 0 1-.034.623L11.09 6.9z"/>
            </g>
            <path fill="#00a8ec"
                  d="M17 2.931v8.14C17 12.136 16.122 13 15.043 13H2.956C1.877 13 1 12.135 1 11.072V2.928C1 1.865 1.877 1 2.956 1h12.09c1.08 0 1.957.868 1.954 1.931zm-.894 8.14v-8.14c0-.577-.477-1.047-1.063-1.047H2.956c-.586 0-1.062.47-1.062 1.047v8.14c0 .578.476 1.048 1.062 1.048h12.09c.587 0 1.063-.47 1.063-1.047zm-1.086-.495a.438.438 0 0 1 .017.623.45.45 0 0 1-.633.016L10.425 7.49l-1.116.986a.447.447 0 0 1-.596.003l-1.085-.956-4.003 3.69a.451.451 0 0 1-.632-.023.438.438 0 0 1 .02-.623l3.943-3.638-3.96-3.488a.435.435 0 0 1-.036-.623.451.451 0 0 1 .632-.036L7.876 6.56c.026.02.05.039.073.062 0 .003.003.006.006.01l1.053.926 5.396-4.773a.454.454 0 0 1 .633.032.438.438 0 0 1-.034.623L11.09 6.9z"/>
        </g>
    </g>
</svg>