<svg xmlns="http://www.w3.org/2000/svg" width="15" height="18" viewBox="0 0 15 18"><g><g><path fill="#919191" d="M4.865 8.562C3.459 6.944 3.693 4.171 3.718 3.906 3.81 1.905 4.744.954 5.511.511 6.275.067 7.071 0 7.476 0h.062c.738.015 1.399.194 1.965.526.76.443 1.68 1.394 1.771 3.38.026.265.26 3.038-1.146 4.656-.64.734-1.505 1.118-2.575 1.137H7.436C6.366 9.68 5.5 9.296 4.865 8.562zm.734-.667c.457.53 1.074.79 1.877.797h.037c.807-.007 1.42-.268 1.88-.797 1.162-1.335.906-3.87.903-3.895-.004-.008-.004-.02-.004-.03-.113-2.527-1.79-2.937-2.776-2.96h-.043c-.797 0-2.656.287-2.776 2.96 0 .007-.004.018-.004.03-.003.022-.252 2.568.906 3.895zm9.225 8.088a.497.497 0 0 1-.19.235C14.524 16.29 11.9 18 7.505 18 3.112 18 .486 16.293.377 16.218a.477.477 0 0 1-.19-.235c-.194-.5-.19-1.494-.187-1.688v-.011c.004-.03.004-.06.004-.094.022-.734.07-2.46 1.654-3.015a.433.433 0 0 1 .037-.011c1.654-.429 3.017-1.398 3.031-1.41a.486.486 0 0 1 .687.124.51.51 0 0 1-.12.7c-.063.042-1.516 1.078-3.335 1.555-.851.31-.946 1.237-.972 2.087 0 .034-.003.064-.003.093-.008.336.018.854.076 1.152.596.343 2.93 1.532 6.443 1.532 3.528 0 5.847-1.185 6.438-1.528.059-.298.08-.816.077-1.152-.004-.03-.004-.06-.004-.093-.025-.85-.12-1.778-.971-2.087-1.819-.477-3.272-1.51-3.334-1.555a.51.51 0 0 1-.12-.7.486.486 0 0 1 .686-.124c.014.012 1.384.98 3.03 1.41l.037.01c1.585.552 1.633 2.278 1.655 3.016 0 .034.004.064.004.093v.012c.003.193.007 1.189-.176 1.684z"/></g></g></svg>