<svg xmlns="http://www.w3.org/2000/svg" width="17" height="17" viewBox="0 0 17 17"><g><g><path fill="#919191" d="M15.416 12.508c.363.359.554.786.554 1.23 0 .442-.187.872-.543 1.242-.155.161-.313.316-.467.463-.227.219-.442.423-.63.65-.003.006-.01.01-.013.017-.547.592-1.244.89-2.074.89a4.91 4.91 0 0 1-.226-.007c-1.233-.08-2.336-.542-3.163-.933a16.905 16.905 0 0 1-5.63-4.403C1.925 10.1 1.055 8.647.473 7.08c-.237-.638-.546-1.614-.46-2.662.058-.65.32-1.21.78-1.668l1.222-1.231.007-.007c.36-.345.783-.528 1.222-.528.438 0 .855.183 1.204.528.233.215.46.445.675.667.108.115.223.23.334.34l.981.98c.755.754.755 1.73 0 2.483-.1.1-.2.205-.301.305-.266.27-.54.55-.834.818.22.485.521.962.97 1.529.927 1.137 1.894 2.016 2.958 2.69.104.065.226.126.355.191.09.047.184.093.277.144L11 10.528c.363-.363.787-.553 1.229-.553.445 0 .866.193 1.214.556zm-.69.678l-1.98-1.977-.007-.007c-.111-.122-.295-.262-.518-.262-.226 0-.42.147-.542.269l-1.23 1.227a.768.768 0 0 1-.545.248.78.78 0 0 1-.356-.09c-.015-.007-.029-.018-.043-.025a4.565 4.565 0 0 0-.356-.19 4.925 4.925 0 0 1-.442-.24c-1.153-.73-2.2-1.68-3.191-2.9l-.004-.003c-.546-.693-.905-1.274-1.16-1.891a3.7 3.7 0 0 0-.011-.032c-.065-.205-.122-.506.187-.815.003-.007.01-.01.018-.018.312-.28.6-.567.902-.875.104-.1.205-.205.309-.309.38-.38.38-.732 0-1.112l-.981-.98-.342-.348c-.219-.226-.427-.437-.646-.642l-.011-.01c-.115-.116-.299-.252-.525-.252-.183 0-.37.09-.546.255L1.48 3.43c-.298.298-.46.646-.495 1.066-.054.657.068 1.353.402 2.246.543 1.464 1.362 2.827 2.587 4.302a15.96 15.96 0 0 0 5.304 4.148c.744.355 1.736.771 2.803.84.054.003.112.003.166.003.56 0 .988-.183 1.35-.57a9.43 9.43 0 0 1 .694-.718c.155-.151.299-.287.439-.438-.004.004-.004 0 0 0 .366-.38.366-.757-.004-1.123zm-5.93-9.702a.488.488 0 0 1 .561-.395 5.545 5.545 0 0 1 3.001 1.554 5.531 5.531 0 0 1 1.556 2.996.485.485 0 0 1-.399.56c-.029.003-.054.007-.083.007a.482.482 0 0 1-.477-.402 4.571 4.571 0 0 0-1.287-2.476 4.56 4.56 0 0 0-2.48-1.284.48.48 0 0 1-.391-.56zm7.802 4.568c-.028.003-.054.007-.082.007a.482.482 0 0 1-.478-.402 8.124 8.124 0 0 0-2.29-4.41A8.168 8.168 0 0 0 9.333.962.483.483 0 1 1 9.49.008a9.123 9.123 0 0 1 4.941 2.558 9.099 9.099 0 0 1 2.563 4.933.475.475 0 0 1-.396.553z"/></g></g></svg>