<svg xmlns="http://www.w3.org/2000/svg" width="32" height="25" viewBox="0 0 32 25"><g><g><path fill="#fff" d="M31.421 3.451L28.614.589A1.892 1.892 0 0 0 27.21 0c-.55 0-1.019.196-1.404.59L12.263 14.414l-6.07-6.208a1.893 1.893 0 0 0-1.403-.59c-.551 0-1.019.197-1.404.59L.578 11.069C.193 11.462 0 11.939 0 12.5s.193 1.038.578 1.431l7.473 7.618 2.808 2.862c.385.393.853.589 1.404.589.55 0 1.018-.197 1.404-.59l2.808-2.861L31.42 6.313A1.97 1.97 0 0 0 32 4.882c0-.561-.192-1.038-.578-1.431z"/></g></g></svg>