<?xml version="1.0" encoding="utf-8"?><svg width="14" height="14" fill="none" xmlns="http://www.w3.org/2000/svg" viewBox="0 0 14 14"><g clip-path="url(#eclip0)"><path d="M13.929.573a.21.21 0 0 0-.226-.032L.12 6.85a.21.21 0 0 0-.004.378l3.844 1.886a.21.21 0 0 0 .217-.02l3.737-2.793-2.934 3.017a.21.21 0 0 0-.058.162l.292 3.804a.21.21 0 0 0 .367.121l2.04-2.364 2.522 1.205a.21.21 0 0 0 .29-.126L13.99.793a.21.21 0 0 0-.061-.22z" fill="#19BCF3"/></g><defs><clipPath id="eclip0"><path fill="#fff" d="M0 0h14v14H0z"/></clipPath></defs></svg>