<?xml version="1.0" encoding="utf-8"?><svg width="12" height="10" fill="none" xmlns="http://www.w3.org/2000/svg" viewBox="0 0 12 10"><path d="M11.805 4.773L9.945.461A.698.698 0 0 0 9.66.133.755.755 0 0 0 9.25 0h-6.5a.755.755 0 0 0-.41.133.699.699 0 0 0-.285.328L.195 4.773c-.13.318-.195.638-.195.961V9.5c0 .136.05.253.148.352A.481.481 0 0 0 .5 10h11c.136 0 .253-.05.352-.148A.48.48 0 0 0 12 9.5V5.734c0-.323-.065-.643-.195-.96zM7.992 5.5L7.25 7h-2.5l-.742-1.5H1.539a.358.358 0 0 0 .02-.062.367.367 0 0 1 .02-.063L3.234 1.5h5.53l1.657 3.875.02.063.019.062H7.992z" fill="#364C53"/></svg>