<?xml version="1.0" encoding="utf-8"?><svg viewBox="0 0 26 26" xmlns="http://www.w3.org/2000/svg" xmlns:xlink="http://www.w3.org/1999/xlink"><style>:root>svg{display:none}:root>svg:target{display:block}</style><svg fill="none" viewBox="0 0 12 6" id="arrow-down" xmlns="http://www.w3.org/2000/svg"><path d="M6 6L.804 0h10.392L6 6z" fill="#CCC"/></svg><svg fill="none" viewBox="0 0 20 15" id="icon-done" xmlns="http://www.w3.org/2000/svg"><path fill-rule="evenodd" clip-rule="evenodd" d="M19.104 2.828L16.274 0 7.552 8.723 2.828 4 0 6.828l7.543 7.543.043-.043.009.01 11.509-11.51z" fill="#F66"/></svg><svg fill="none" viewBox="0 0 26 26" id="icon-plus" xmlns="http://www.w3.org/2000/svg"><circle cx="13" cy="13" r="12.5" fill="#fff" stroke="#DEDEDE"/><path fill="#C4C4C4" d="M12 8h2v10h-2z"/><path fill="#C4C4C4" d="M8 12h10v2H8z"/></svg><svg fill="none" viewBox="0 0 26 26" id="icon-plus-dark" xmlns="http://www.w3.org/2000/svg"><path fill-rule="evenodd" clip-rule="evenodd" d="M13 26c7.18 0 13-5.82 13-13S20.18 0 13 0 0 5.82 0 13s5.82 13 13 13zm2-21v6h6v4h-6v6h-4v-6H5v-4h6V5h4z" fill="#2A4249"/></svg><svg fill="none" viewBox="0 0 14 14" id="sent-mail" xmlns="http://www.w3.org/2000/svg"><g clip-path="url(#eclip0)"><path d="M13.929.573a.21.21 0 0 0-.226-.032L.12 6.85a.21.21 0 0 0-.004.378l3.844 1.886a.21.21 0 0 0 .217-.02l3.737-2.793-2.934 3.017a.21.21 0 0 0-.058.162l.292 3.804a.21.21 0 0 0 .367.121l2.04-2.364 2.522 1.205a.21.21 0 0 0 .29-.126L13.99.793a.21.21 0 0 0-.061-.22z" fill="#19BCF3"/></g><defs><clipPath id="eclip0"><path fill="#fff" d="M0 0h14v14H0z"/></clipPath></defs></svg><svg fill="none" viewBox="0 0 12 10" id="submit" xmlns="http://www.w3.org/2000/svg"><path d="M11.805 4.773L9.945.461A.698.698 0 0 0 9.66.133.755.755 0 0 0 9.25 0h-6.5a.755.755 0 0 0-.41.133.699.699 0 0 0-.285.328L.195 4.773c-.13.318-.195.638-.195.961V9.5c0 .136.05.253.148.352A.481.481 0 0 0 .5 10h11c.136 0 .253-.05.352-.148A.48.48 0 0 0 12 9.5V5.734c0-.323-.065-.643-.195-.96zM7.992 5.5L7.25 7h-2.5l-.742-1.5H1.539a.358.358 0 0 0 .02-.062.367.367 0 0 1 .02-.063L3.234 1.5h5.53l1.657 3.875.02.063.019.062H7.992z" fill="#364C53"/></svg></svg>